HIERARCHY
ROOT hip
{
  OFFSET 0.00112043 5.09927 -9.65472
  CHANNELS 6 Xposition Yposition Zposition Zrotation Xrotation Yrotation
  JOINT abdomen
  {
    OFFSET 0 -1.186 -1.5018
    CHANNELS 3 Zrotation Xrotation Yrotation
    JOINT abdomen2
    {
      OFFSET 0 9.964 0.2134
      CHANNELS 3 Zrotation Xrotation Yrotation
      JOINT chest
      {
        OFFSET 0 13.134 -3.2573
        CHANNELS 3 Zrotation Xrotation Yrotation
        JOINT neck
        {
          OFFSET 0 20.686 -1.6905
          CHANNELS 3 Zrotation Xrotation Yrotation
          JOINT head
          {
            OFFSET 0 7.238 -0.1237
            CHANNELS 3 Zrotation Xrotation Yrotation
            End Site
            {
              OFFSET 0 0 0
            }
          }
        }
        JOINT lCollar
        {
          OFFSET 1.7069 20.075 5.0056
          CHANNELS 3 Zrotation Xrotation Yrotation
          JOINT lShldr
          {
            OFFSET 13.6458 -0.047 -4.849
            CHANNELS 3 Zrotation Xrotation Yrotation
            JOINT lForeArm
            {
              OFFSET 28.3255 -0.9759 2.2888
              CHANNELS 3 Zrotation Xrotation Yrotation
              JOINT lHand
              {
                OFFSET 22.1583 -0.53 10.8316
                CHANNELS 3 Zrotation Xrotation Yrotation
                JOINT lThumb1
                {
                  OFFSET 0.786 0.112 2.5817
                  CHANNELS 3 Zrotation Xrotation Yrotation
                  JOINT lThumb2
                  {
                    OFFSET 0.3601 -0.878 4.2331
                    CHANNELS 3 Zrotation Xrotation Yrotation
                    JOINT lThumb2_End
                    {
                      OFFSET 1.8127 -1.216 2.2227
                      CHANNELS 3 Zrotation Xrotation Yrotation
                      End Site
                      {
                        OFFSET 0.0181 -0.0122 0.0222
                      }
                    }
                  }
                }
                JOINT lCarpal1
                {
                  OFFSET 0.9571 1.114 1.7695
                  CHANNELS 3 Zrotation Xrotation Yrotation
                  JOINT lIndex1
                  {
                    OFFSET 4.1246 0.487 4.1451
                    CHANNELS 3 Zrotation Xrotation Yrotation
                    JOINT lIndex2
                    {
                      OFFSET 3.4052 -1.454 2.7682
                      CHANNELS 3 Zrotation Xrotation Yrotation
                      JOINT lIndex2_End
                      {
                        OFFSET 1.4531 -1.795 1.2713
                        CHANNELS 3 Zrotation Xrotation Yrotation
                        End Site
                        {
                          OFFSET 0.0145 -0.0179 0.0127
                        }
                      }
                    }
                  }
                  JOINT lMid1
                  {
                    OFFSET 5.6954 0.21 2.1184
                    CHANNELS 3 Zrotation Xrotation Yrotation
                    JOINT lMid2
                    {
                      OFFSET 3.9766 -1.54 2.3863
                      CHANNELS 3 Zrotation Xrotation Yrotation
                      JOINT lMid2_End
                      {
                        OFFSET 1.4042 -1.926 1.125
                        CHANNELS 3 Zrotation Xrotation Yrotation
                        End Site
                        {
                          OFFSET 0.014 -0.0193 0.0113
                        }
                      }
                    }
                  }
                }
                JOINT lCarpal2
                {
                  OFFSET 2.0956 0.66 -0.3894
                  CHANNELS 3 Zrotation Xrotation Yrotation
                  JOINT lRing1
                  {
                    OFFSET 5.0395 -0.09 2.4971
                    CHANNELS 3 Zrotation Xrotation Yrotation
                    JOINT lRing2
                    {
                      OFFSET 3.7921 -1.552 1.4806
                      CHANNELS 3 Zrotation Xrotation Yrotation
                      JOINT lRing2_End
                      {
                        OFFSET 1.4655 -1.808 0.9609
                        CHANNELS 3 Zrotation Xrotation Yrotation
                        End Site
                        {
                          OFFSET 0.0147 -0.0181 0.0096
                        }
                      }
                    }
                  }
                  JOINT lPinky1
                  {
                    OFFSET 4.9141 -1.269 0.3591
                    CHANNELS 3 Zrotation Xrotation Yrotation
                    JOINT lPinky2
                    {
                      OFFSET 3.1477 -1.685 0.8462
                      CHANNELS 3 Zrotation Xrotation Yrotation
                      JOINT lPinky2_End
                      {
                        OFFSET 0.8055 -1.585 0.7955
                        CHANNELS 3 Zrotation Xrotation Yrotation
                        End Site
                        {
                          OFFSET 0.0081 -0.0158 0.008
                        }
                      }
                    }
                  }
                }
              }
            }
          }
        }
        JOINT rCollar
        {
          OFFSET -1.7069 20.075 5.0056
          CHANNELS 3 Zrotation Xrotation Yrotation
          JOINT rShldr
          {
            OFFSET -13.6458 -0.047 -4.849
            CHANNELS 3 Zrotation Xrotation Yrotation
            JOINT rForeArm
            {
              OFFSET -28.3255 -0.9759 2.2888
              CHANNELS 3 Zrotation Xrotation Yrotation
              JOINT rHand
              {
                OFFSET -22.1583 -0.53 10.8316
                CHANNELS 3 Zrotation Xrotation Yrotation
                JOINT rThumb1
                {
                  OFFSET -0.786 0.112 2.5817
                  CHANNELS 3 Zrotation Xrotation Yrotation
                  JOINT rThumb2
                  {
                    OFFSET -0.3601 -0.878 4.2331
                    CHANNELS 3 Zrotation Xrotation Yrotation
                    JOINT rThumb2_End
                    {
                      OFFSET -1.8127 -1.216 2.2227
                      CHANNELS 3 Zrotation Xrotation Yrotation
                      End Site
                      {
                        OFFSET -0.0181 -0.0122 0.0222
                      }
                    }
                  }
                }
                JOINT rCarpal1
                {
                  OFFSET -0.9571 1.114 1.7695
                  CHANNELS 3 Zrotation Xrotation Yrotation
                  JOINT rIndex1
                  {
                    OFFSET -4.1246 0.487 4.1451
                    CHANNELS 3 Zrotation Xrotation Yrotation
                    JOINT rIndex2
                    {
                      OFFSET -3.4052 -1.454 2.7682
                      CHANNELS 3 Zrotation Xrotation Yrotation
                      JOINT rIndex2_End
                      {
                        OFFSET -1.4531 -1.795 1.2713
                        CHANNELS 3 Zrotation Xrotation Yrotation
                        End Site
                        {
                          OFFSET -0.0145 -0.018 0.0127
                        }
                      }
                    }
                  }
                  JOINT rMid1
                  {
                    OFFSET -5.6954 0.21 2.1184
                    CHANNELS 3 Zrotation Xrotation Yrotation
                    JOINT rMid2
                    {
                      OFFSET -3.9766 -1.54 2.3863
                      CHANNELS 3 Zrotation Xrotation Yrotation
                      JOINT rMid2_End
                      {
                        OFFSET -1.4042 -1.926 1.125
                        CHANNELS 3 Zrotation Xrotation Yrotation
                        End Site
                        {
                          OFFSET -0.014 -0.0193 0.0113
                        }
                      }
                    }
                  }
                }
                JOINT rCarpal2
                {
                  OFFSET -2.0956 0.66 -0.3894
                  CHANNELS 3 Zrotation Xrotation Yrotation
                  JOINT rRing1
                  {
                    OFFSET -5.0395 -0.09 2.4971
                    CHANNELS 3 Zrotation Xrotation Yrotation
                    JOINT rRing2
                    {
                      OFFSET -3.7921 -1.552 1.4806
                      CHANNELS 3 Zrotation Xrotation Yrotation
                      JOINT rRing2_End
                      {
                        OFFSET -1.4655 -1.808 0.9609
                        CHANNELS 3 Zrotation Xrotation Yrotation
                        End Site
                        {
                          OFFSET -0.0147 -0.0181 0.0096
                        }
                      }
                    }
                  }
                  JOINT rPinky1
                  {
                    OFFSET -4.9141 -1.269 0.3592
                    CHANNELS 3 Zrotation Xrotation Yrotation
                    JOINT rPinky2
                    {
                      OFFSET -3.1477 -1.685 0.8462
                      CHANNELS 3 Zrotation Xrotation Yrotation
                      JOINT rPinky2_End
                      {
                        OFFSET -0.8055 -1.585 0.7955
                        CHANNELS 3 Zrotation Xrotation Yrotation
                        End Site
                        {
                          OFFSET -0.0081 -0.0158 0.008
                        }
                      }
                    }
                  }
                }
              }
            }
          }
        }
      }
    }
  }
  JOINT lThigh
  {
    OFFSET 8.367 -8.2066 0.5982
    CHANNELS 3 Zrotation Xrotation Yrotation
    JOINT lShin
    {
      OFFSET 2.1923 -43.463 -0.4932
      CHANNELS 3 Zrotation Xrotation Yrotation
      JOINT lFoot
      {
        OFFSET 0.7333 -45.8593 -2.6451
        CHANNELS 3 Zrotation Xrotation Yrotation
        End Site
        {
          OFFSET 2.6618 -4.2699 12.3931
        }
      }
    }
  }
  JOINT rThigh
  {
    OFFSET -8.367 -8.2066 0.5982
    CHANNELS 3 Zrotation Xrotation Yrotation
    JOINT rShin
    {
      OFFSET -2.1923 -43.463 -0.4931
      CHANNELS 3 Zrotation Xrotation Yrotation
      JOINT rFoot
      {
        OFFSET -0.7333 -45.8593 -2.6451
        CHANNELS 3 Zrotation Xrotation Yrotation
        End Site
        {
          OFFSET -2.6618 -4.2699 12.3931
        }
      }
    }
  }
}
MOTION
Frames:	4
Frame Time:	0.0333333
-0.441925 -0.252941 37.1459 -0.348423 -80.7615 -175.618 3.66117 1.26508 3.00743 7.25396 2.71788 5.93038 7.25396 2.71788 5.93038 -10.1504 9.83698 23.7501 -6.02428 4.96817 36.242 4.27762 -38.6373 26.8841 -114.412 9.18863 73.6314 17.2808 9.02336 -49.1032 -28.382 -76.1127 -16.6896 1.93809e-032 2.03133e-015 -5.46658e-016 7.34158e-033 -3.14949e-015 1.33558e-016 -1.08674e-032 -1.15544e-015 -5.38893e-016 -6.59661e-032 3.62161e-015 1.04362e-015 -3.18055e-015 7.98089e-015 1.36664e-016 8.73288e-033 1.57164e-015 -3.18366e-016 -4.26856e-032 2.34348e-015 1.04362e-015 -3.18055e-015 7.98089e-015 1.36664e-016 8.73288e-033 1.57164e-015 -3.18366e-016 -4.26856e-032 2.34348e-015 1.04362e-015 -6.59661e-032 3.62161e-015 1.04362e-015 -3.18055e-015 7.98089e-015 1.36664e-016 8.73288e-033 1.57164e-015 -3.18366e-016 -4.26856e-032 2.34348e-015 1.04362e-015 -3.18055e-015 7.98089e-015 1.36664e-016 8.73288e-033 1.57164e-015 -3.18366e-016 -4.26856e-032 2.34348e-015 1.04362e-015 -30.8519 -41.6357 -29.7123 53.5806 3.31044 38.9382 0.0727907 12.7256 103.381 -29.4931 -0.976445 -37.9833 7.95139e-016 1.59028e-015 -0 3.18055e-015 -1.19271e-015 -0 2.38542e-015 -7.95139e-016 3.18055e-015 1.59028e-015 1.39149e-015 3.18055e-015 2.38542e-015 4.96962e-015 1.27222e-014 -7.95139e-016 1.78906e-015 -6.36111e-015 1.59028e-015 -3.97569e-016 3.18055e-015 2.38542e-015 4.96962e-015 1.27222e-014 -7.95139e-016 1.78906e-015 -6.36111e-015 1.59028e-015 -3.97569e-016 3.18055e-015 1.59028e-015 1.39149e-015 3.18055e-015 2.38542e-015 4.96962e-015 1.27222e-014 -7.95139e-016 1.78906e-015 -6.36111e-015 1.59028e-015 -3.97569e-016 3.18055e-015 2.38542e-015 4.96962e-015 1.27222e-014 -7.95139e-016 1.78906e-015 -6.36111e-015 1.59028e-015 -3.97569e-016 3.18055e-015 2.57963 -1.71077 1.18108 2.42529 16.3961 -0.445227 17.9399 21.9248 -1.00873 -3.29088 -4.10439 0.404856 3.12073 20.145 -4.76721 -19.9941 39.4849 15.0614 
-0.44117 -0.261638 37.1469 -0.344464 -80.806 -175.639 3.66118 1.26499 3.00743 7.25396 2.71788 5.93038 7.25396 2.71788 5.93038 -10.1504 9.83728 23.7501 -6.02419 4.96812 36.5221 4.21041 -38.5767 26.7709 -114.633 9.5056 73.0688 17.1386 9.33701 -48.4435 -26.5563 -75.3261 -14.6794 2.39147e-006 2.22079e-006 9.58257e-007 3.52551e-006 1.36851e-007 -9.53042e-006 -3.18055e-015 4.72114e-016 -6.03808e-015 1.32008e-033 -4.34841e-016 1.73937e-016 2.39147e-006 2.22079e-006 9.58257e-007 3.52551e-006 1.36851e-007 -9.53042e-006 -3.18055e-015 5.09386e-016 -5.56597e-015 2.39147e-006 2.22079e-006 9.58257e-007 3.52551e-006 1.36851e-007 -9.53042e-006 -3.18055e-015 5.09386e-016 -5.56597e-015 1.32008e-033 -4.34841e-016 1.73937e-016 2.39147e-006 2.22079e-006 9.58257e-007 3.52551e-006 1.36851e-007 -9.53042e-006 -3.18055e-015 5.09386e-016 -5.56597e-015 2.39147e-006 2.22079e-006 9.58257e-007 3.52551e-006 1.36851e-007 -9.53042e-006 -3.18055e-015 5.09386e-016 -5.56597e-015 -30.7744 -41.5474 -29.6055 53.579 3.29808 38.9324 0.0751068 12.722 103.361 -29.4931 -0.976457 -37.9833 -3.97569e-016 -7.15625e-015 -3.18055e-015 -5.07599e-031 -9.14409e-015 -3.18055e-015 -2.38542e-015 -4.17448e-015 -6.36111e-015 -3.97569e-016 -2.78299e-015 -0 -1.19271e-015 -1.39149e-015 -6.36111e-015 -2.38542e-015 -6.55989e-015 -3.18055e-015 -3.97569e-016 -8.34896e-015 -3.18055e-015 -1.19271e-015 -1.39149e-015 -6.36111e-015 -2.38542e-015 -6.55989e-015 -3.18055e-015 -3.97569e-016 -8.34896e-015 -3.18055e-015 -3.97569e-016 -2.78299e-015 -0 -1.19271e-015 -1.39149e-015 -6.36111e-015 -2.38542e-015 -6.55989e-015 -3.18055e-015 -3.97569e-016 -8.34896e-015 -3.18055e-015 -1.19271e-015 -1.39149e-015 -6.36111e-015 -2.38542e-015 -6.55989e-015 -3.18055e-015 -3.97569e-016 -8.34896e-015 -3.18055e-015 2.57922 -1.7102 1.18114 2.42513 16.3932 -0.445371 17.9406 21.9271 -1.00923 -3.29792 -4.10763 0.408899 3.12066 20.1446 -4.76745 -19.9946 39.4844 15.0615 
-0.440427 -0.270206 37.1479 -0.340683 -80.85 -175.659 3.66118 1.26508 3.00742 7.25396 2.71787 5.93038 7.25396 2.71788 5.93038 -10.1506 9.83569 23.7502 -6.02413 4.96804 36.8023 4.14339 -38.5159 26.6578 -114.851 9.82485 72.507 16.9927 9.64911 -47.7823 -24.9263 -74.5248 -12.8645 1.19603e-006 1.10791e-006 4.89833e-007 2.81383e-006 -1.83812e-006 -2.21037e-008 1.19603e-006 1.10791e-006 4.89833e-007 -3.18055e-015 2.85753e-015 3.37934e-015 1.19603e-006 1.10791e-006 4.89833e-007 2.81383e-006 -1.83812e-006 -2.21037e-008 1.19603e-006 1.10791e-006 4.89833e-007 1.19603e-006 1.10791e-006 4.89833e-007 2.81383e-006 -1.83812e-006 -2.21037e-008 1.19603e-006 1.10791e-006 4.89833e-007 -3.18055e-015 2.85753e-015 3.37934e-015 1.19603e-006 1.10791e-006 4.89833e-007 2.81383e-006 -1.83812e-006 -2.21037e-008 1.19603e-006 1.10791e-006 4.89833e-007 1.19603e-006 1.10791e-006 4.89833e-007 2.81383e-006 -1.83812e-006 -2.21037e-008 1.19603e-006 1.10791e-006 4.89833e-007 -30.6972 -41.4589 -29.499 53.5773 3.2857 38.9265 0.0774048 12.7184 103.34 -29.4931 -0.976458 -37.9833 -0 -5.1684e-015 -0 7.95139e-016 -6.55989e-015 3.18055e-015 -0 -1.39149e-015 -0 7.95139e-016 -3.97569e-015 3.18055e-015 -1.98785e-015 -6.36111e-015 6.36111e-015 1.19271e-015 -7.95139e-015 -0 1.19271e-015 -9.14409e-015 -0 -1.98785e-015 -6.36111e-015 6.36111e-015 1.19271e-015 -7.95139e-015 -0 1.19271e-015 -9.14409e-015 -0 7.95139e-016 -3.97569e-015 3.18055e-015 -1.98785e-015 -6.36111e-015 6.36111e-015 1.19271e-015 -7.95139e-015 -0 1.19271e-015 -9.14409e-015 -0 -1.98785e-015 -6.36111e-015 6.36111e-015 1.19271e-015 -7.95139e-015 -0 1.19271e-015 -9.14409e-015 -0 2.57871 -1.7108 1.18112 2.42512 16.3917 -0.445453 17.9413 21.9291 -1.00971 -3.30497 -4.11083 0.412925 3.12057 20.1441 -4.76765 -19.9951 39.4838 15.0616 
-0.439695 -0.278641 37.1489 -0.337026 -80.8933 -175.678 3.66118 1.26509 3.00743 7.25397 2.71787 5.93039 7.25397 2.71789 5.93038 -10.1506 9.83598 23.7501 -6.02404 4.96799 37.0824 4.07654 -38.455 26.5449 -115.066 10.1461 71.9457 16.843 9.95954 -47.1196 -23.466 -73.7109 -11.219 6.39672e-032 -5.26779e-015 6.95746e-016 -3.18055e-015 -6.60959e-015 2.38542e-015 3.18055e-015 -4.27387e-015 -1.68967e-015 2.53455e-032 -2.08724e-015 6.95746e-016 -6.36111e-015 2.43511e-014 1.64991e-014 -4.13804e-033 -2.98177e-016 -7.95139e-016 3.18055e-015 -2.73329e-015 -5.26779e-015 -6.36111e-015 2.43511e-014 1.64991e-014 -4.13804e-033 -2.98177e-016 -7.95139e-016 3.18055e-015 -2.73329e-015 -5.26779e-015 2.53455e-032 -2.08724e-015 6.95746e-016 -6.36111e-015 2.43511e-014 1.64991e-014 -4.13804e-033 -2.98177e-016 -7.95139e-016 3.18055e-015 -2.73329e-015 -5.26779e-015 -6.36111e-015 2.43511e-014 1.64991e-014 -4.13804e-033 -2.98177e-016 -7.95139e-016 3.18055e-015 -2.73329e-015 -5.26779e-015 -30.6203 -41.3704 -29.3928 53.5757 3.27334 38.9207 0.0797204 12.7148 103.32 -29.4931 -0.976457 -37.9833 -1.48057e-006 -2.34513e-006 1.74801e-006 -1.72912e-006 7.65138e-006 -1.58226e-006 3.20969e-006 -5.30626e-006 -1.65751e-007 -3.97569e-015 -1.39149e-015 -0 -1.48057e-006 -2.34513e-006 1.74801e-006 -1.72912e-006 7.65138e-006 -1.58226e-006 3.20969e-006 -5.30626e-006 -1.65751e-007 -1.48057e-006 -2.34513e-006 1.74801e-006 -1.72912e-006 7.65138e-006 -1.58226e-006 3.20969e-006 -5.30626e-006 -1.65751e-007 -3.97569e-015 -1.39149e-015 -0 -1.48057e-006 -2.34513e-006 1.74801e-006 -1.72912e-006 7.65138e-006 -1.58226e-006 3.20969e-006 -5.30626e-006 -1.65751e-007 -1.48057e-006 -2.34513e-006 1.74801e-006 -1.72912e-006 7.65138e-006 -1.58226e-006 3.20969e-006 -5.30626e-006 -1.65751e-007 2.57819 -1.71157 1.18109 2.42511 16.3903 -0.445558 17.942 21.9313 -1.0102 -3.31203 -4.11429 0.416978 3.12052 20.1439 -4.76791 -19.9956 39.4833 15.0617 
